<svg xmlns="http://www.w3.org/2000/svg" width="108" height="27" viewBox="0 0 108 27" fill="none">
  <path fill-rule="evenodd" clip-rule="evenodd" d="M0.000199363 19.0814L3.87749 16.1112C5.93673 18.7993 8.12346 20.038 10.5601 20.0378C12.9832 20.0377 15.1097 18.813 17.0763 16.1458L21.0074 19.0444C18.1719 22.8899 14.644 24.9217 10.5604 24.922C6.49035 24.9223 2.92948 22.9052 0.000199363 19.0814Z" fill="#B5AFAF"/>
  <path fill-rule="evenodd" clip-rule="evenodd" d="M10.09 6.5699L3.18909 12.5171L0.000584388 8.81728L10.1033 0.110741L20.1286 8.82271L16.9249 12.5094L10.09 6.5699Z" fill="#B5AFAF"/>
  <path d="M47.9074 5.15327L44 5.15353L44.0011 21.4342L47.9085 21.434L47.9074 5.15327Z" fill="#B5AFAF"/>
  <path fill-rule="evenodd" clip-rule="evenodd" d="M36.1056 21.426C33.8022 21.4262 31.8827 20.6799 30.3257 19.187C28.7687 17.6729 28.0007 15.7321 28.0006 13.3647C28.0004 10.976 28.7894 9.01378 30.3462 7.47811C31.9244 5.92106 33.8438 5.15314 36.1259 5.15299C38.941 5.1528 41.4366 6.3683 42.8869 8.26639L40.3491 10.9325C39.1332 9.63161 37.811 8.97055 36.382 8.97064C35.1664 8.97072 34.164 9.376 33.3323 10.2078C32.5219 11.0397 32.1167 12.0848 32.1168 13.3431C32.1169 14.5588 32.5222 15.5825 33.3327 16.4142C34.1645 17.2246 35.167 17.6298 36.3613 17.6297C37.9182 17.6296 39.2831 16.947 40.4133 15.6033L43.0583 18.1411C42.3333 19.1009 41.3521 19.8901 40.1364 20.5087C38.921 21.1273 37.5772 21.4259 36.1056 21.426Z" fill="#B5AFAF"/>
  <path fill-rule="evenodd" clip-rule="evenodd" d="M53.233 6.26973C53.2331 7.43866 52.2859 8.3863 51.1169 8.38638C49.9479 8.38646 49.0002 7.43894 49.0001 6.27001C49.0001 5.10111 49.9476 4.15347 51.1166 4.15339C52.2856 4.15331 53.2329 5.10083 53.233 6.26973ZM53.0704 9.36306L49.1631 9.36332L49.1639 21.2482L53.0712 21.248L53.0704 9.36306Z" fill="#B5AFAF"/>
  <path fill-rule="evenodd" clip-rule="evenodd" d="M60.25 21.4805C58.3946 21.4806 56.9015 20.9049 55.7286 19.7533C54.5767 18.6016 54.0005 17.1301 54.0004 15.3172C54.0003 13.5044 54.5763 12.0327 55.749 10.881C56.9222 9.72919 58.4363 9.15324 60.3131 9.15311C62.766 9.15295 64.9199 10.3471 65.9225 12.5865L62.9154 14.1649C62.3182 13.1626 61.4866 12.6508 60.3988 12.6508C59.6097 12.6509 58.9697 12.9069 58.458 13.4187C57.9674 13.9307 57.7116 14.5705 57.7116 15.317C57.7117 16.8739 58.8421 18.0255 60.3566 18.0254C61.444 18.0253 62.4464 17.4281 62.873 16.511L65.8803 18.3023C64.8566 20.2645 62.7454 21.4803 60.25 21.4805Z" fill="#B5AFAF"/>
  <path fill-rule="evenodd" clip-rule="evenodd" d="M70.9073 5.15327L67 5.15353L67.0011 21.4342L70.9084 21.4339L70.9081 17.2893L71.3658 16.8623L74.9379 21.4337L79.4833 21.4333L73.9951 14.41L79.2079 9.54845L74.4334 9.54877L70.9078 12.8371L70.9073 5.15327Z" fill="#B5AFAF"/>
  <path fill-rule="evenodd" clip-rule="evenodd" d="M81.0007 15.2821L81 5.15353L85.0705 5.15326L85.0711 15.055C85.0713 16.8252 86.1028 17.6782 87.5947 17.6781C89.0648 17.678 90.1181 16.7822 90.1179 15.0547L90.1173 5.15292L94.1874 5.15265L94.1881 15.2812C94.1884 19.9306 90.9243 21.6797 87.595 21.6799C84.2871 21.6801 81.001 19.9315 81.0007 15.2821Z" fill="#B5AFAF"/>
  <path fill-rule="evenodd" clip-rule="evenodd" d="M102.164 21.5264C105.311 21.5262 107.862 18.7561 107.862 15.3393C107.862 11.9225 105.31 9.15284 102.163 9.15305C100.881 9.15314 99.6971 9.61343 98.7446 10.3901L98.7445 9.31611L95 9.31636L95.0011 26.0855L98.7456 26.0852L98.7453 20.2898C99.6979 21.0663 100.882 21.5265 102.164 21.5264ZM98.7449 15.3463L98.7449 15.3336C98.7483 13.8079 99.9494 12.5721 101.431 12.572C102.915 12.5719 104.118 13.811 104.118 15.3396C104.118 16.8681 102.915 18.1073 101.431 18.1074C99.9497 18.1075 98.7485 16.8719 98.7449 15.3463Z" fill="#B5AFAF"/>
</svg>