<svg xmlns="http://www.w3.org/2000/svg" width="83" height="25" viewBox="0 0 83 25" fill="none">
  <path d="M0.704459 7.14733L4.85132 7.14705L4.85243 23.7345L0.705572 23.7348L0.704459 7.14733ZM18.2134 6.63932C15.7713 6.63948 13.7902 8.11405 13.0531 9.77285L12.9609 9.77285L12.9607 7.10043L9.04425 7.1007L9.04536 23.6881L13.1922 23.6878L13.1916 14.6108C13.1915 12.3992 14.4354 10.0953 17.0617 10.0951C19.7341 10.0949 20.195 12.5369 20.1952 14.5182L20.1958 23.7335L24.3427 23.7332L24.342 13.366C24.3417 10.0025 22.5445 6.63903 18.2134 6.63932ZM53.9231 16.2668C53.9232 18.4785 52.6793 20.7824 50.053 20.7826C47.3805 20.7828 46.9196 18.3407 46.9195 16.3595L46.9189 7.14423L42.772 7.14451L42.7727 17.5117C42.7729 20.8752 44.5701 24.1926 48.9013 24.1923C51.3433 24.1921 53.3245 22.7176 54.0616 21.0588L54.1538 21.0588L54.1539 23.7312L58.0704 23.7309L58.0693 7.14348L53.9225 7.14376L53.9231 16.2668ZM62.3094 23.7306L66.4563 23.7303L66.4552 7.14292L62.3083 7.1432L62.3094 23.7306ZM26.4613 10.7856L31.115 10.7853L31.1159 23.7327L35.2627 23.7324L35.2618 10.785L39.9155 10.7847L39.9153 7.09862L26.461 7.09953L26.4613 10.7856ZM33.188 4.97957C34.5703 4.97948 35.6761 3.87358 35.676 2.49129C35.6759 1.109 34.57 0.0032504 33.1877 0.00334319C31.8054 0.00343597 30.6996 1.10934 30.6997 2.49162C30.6998 3.87391 31.8057 4.97966 33.188 4.97957ZM69.358 7.14272L69.3582 10.8288L74.0119 10.8285L74.0128 23.7759L78.1596 23.7756L78.1588 10.7822L82.8125 10.7818L82.8122 7.09575L69.358 7.09665L69.358 7.14272ZM76.085 4.97669C77.4672 4.9766 78.573 3.8707 78.5729 2.48841C78.5728 1.10613 77.4669 0.000370905 76.0846 0.000463693C74.7023 0.00055648 73.5966 1.10646 73.5967 2.48875C73.5968 3.82495 74.7027 4.97678 76.085 4.97669Z" fill="#B5AFAF"/>
</svg>