<svg xmlns="http://www.w3.org/2000/svg" width="126" height="28" viewBox="0 0 126 28" fill="none">
  <path d="M23.9914 8.87296L9.96478 8.8739C9.6972 8.87392 9.4803 9.09085 9.48032 9.35843L9.48043 10.9915C9.48045 11.2591 9.69738 11.476 9.96496 11.4759L23.9916 11.475C24.2592 11.475 24.4761 11.2581 24.4761 10.9905L24.476 9.35742C24.4759 9.08984 24.259 8.87294 23.9914 8.87296Z" fill="#B5AFAF"/>
  <path d="M14.9914 15.873L0.964781 15.8739C0.697202 15.8739 0.4803 16.0908 0.480318 16.3584L0.480428 17.9915C0.480446 18.2591 0.697376 18.476 0.964956 18.4759L14.9916 18.475C15.2592 18.475 15.4761 18.2581 15.4761 17.9905L15.476 16.3574C15.4759 16.0898 15.259 15.8729 14.9914 15.873Z" fill="#B5AFAF"/>
  <path fill-rule="evenodd" clip-rule="evenodd" d="M2.41113 10.9329C2.53418 10.9647 2.66479 10.947 2.77497 10.8837C2.88515 10.8204 2.96616 10.7164 3.00064 10.5941C3.77716 8.16285 5.43399 6.10945 7.64617 4.8366C9.85834 3.56375 12.4663 3.16329 14.9584 3.71377C15.079 3.73862 15.2045 3.71628 15.3092 3.65135C15.4138 3.58642 15.4895 3.48386 15.5208 3.36476L15.9442 1.7842C15.9608 1.72074 15.9643 1.6546 15.9547 1.58974C15.945 1.52488 15.9223 1.46264 15.8879 1.40678C15.8536 1.35092 15.8083 1.30258 15.7548 1.26468C15.7013 1.22677 15.6407 1.20009 15.5766 1.18622C12.4272 0.477556 9.12651 0.981709 6.33233 2.59819C3.53814 4.21467 1.45573 6.82475 0.500185 9.90816C0.482194 9.97 0.476716 10.0348 0.484069 10.0988C0.491423 10.1628 0.511461 10.2247 0.543012 10.2808C0.574562 10.337 0.616992 10.3863 0.667821 10.4258C0.718649 10.4654 0.776854 10.4944 0.839034 10.5112L2.41113 10.9329Z" fill="#B5AFAF"/>
  <path fill-rule="evenodd" clip-rule="evenodd" d="M22.2208 16.8899C22.0969 16.8566 21.9647 16.8735 21.8531 16.9369C21.7415 17.0003 21.6594 17.1052 21.6246 17.2288C20.8497 19.6616 19.1936 21.7169 16.9812 22.9914C14.7689 24.266 12.1601 24.6676 9.6668 24.1175C9.54617 24.0923 9.42043 24.1144 9.31571 24.1794C9.21098 24.2444 9.13531 24.3472 9.1044 24.4665L8.68947 26.0386C8.67265 26.1022 8.6689 26.1685 8.67844 26.2336C8.68798 26.2986 8.71062 26.3611 8.74499 26.4171C8.77936 26.4732 8.82474 26.5217 8.87839 26.5597C8.93204 26.5977 8.99284 26.6245 9.05712 26.6383C12.2066 27.3453 15.5067 26.8402 18.3006 25.2236C21.0944 23.607 23.1769 20.9975 24.1335 17.9147C24.1517 17.853 24.1573 17.7882 24.1501 17.7242C24.1428 17.6603 24.1228 17.5984 24.0912 17.5424C24.0596 17.4863 24.0171 17.4371 23.9661 17.3978C23.9152 17.3584 23.8569 17.3297 23.7946 17.3133L22.2208 16.8899Z" fill="#B5AFAF"/>
  <path d="M20.0992 6.72675C20.887 6.7267 21.5256 6.08804 21.5255 5.30028C21.5255 4.51251 20.8868 3.87394 20.0991 3.87399C19.3113 3.87404 18.6727 4.5127 18.6728 5.30047C18.6728 6.08824 19.3115 6.72681 20.0992 6.72675Z" fill="#B5AFAF"/>
  <path d="M5.09924 23.7268C5.88701 23.7267 6.52558 23.088 6.52553 22.3003C6.52548 21.5125 5.88682 20.8739 5.09905 20.874C4.31128 20.874 3.67271 21.5127 3.67276 22.3005C3.67282 23.0882 4.31147 23.7268 5.09924 23.7268Z" fill="#B5AFAF"/>
  <path fill-rule="evenodd" clip-rule="evenodd" d="M58.9683 11.2525C59.4884 10.6813 60.1238 10.2271 60.8325 9.91981C61.5413 9.61254 62.3072 9.45926 63.0796 9.47012C64.5805 9.47002 65.7495 9.93411 66.4881 10.8251L66.4881 10.0865C66.4929 9.98443 66.5354 9.88776 66.6074 9.81518C66.6793 9.74259 66.7756 9.69923 66.8777 9.69348L68.8563 9.69334C68.9582 9.69945 69.0543 9.74291 69.1262 9.81542C69.1981 9.88792 69.2407 9.98437 69.246 10.0863L69.2467 21.0722C69.3082 22.6224 68.8292 24.1458 67.8918 25.3819C66.8246 26.6796 65.2051 27.337 63.0774 27.3372C60.1196 27.3374 57.7851 25.4656 57.4004 22.7924C57.3911 22.696 57.4158 22.5993 57.4702 22.5192C57.5247 22.4391 57.6054 22.3805 57.6985 22.3537L59.6314 21.8995C59.6415 21.8987 59.6517 21.8987 59.6619 21.8995C59.7123 21.8918 59.7637 21.8942 59.8132 21.9065C59.8627 21.9188 59.9093 21.9408 59.9502 21.9712C59.9912 22.0016 60.0257 22.0398 60.0518 22.0836C60.0779 22.1274 60.0951 22.176 60.1024 22.2264C60.1887 22.9497 60.5418 23.6147 61.0927 24.0912C61.6436 24.5678 62.3525 24.8216 63.0806 24.8029C65.3913 24.8027 66.4687 23.6168 66.4685 21.1384L66.4684 20.1762C66.0444 20.6514 65.5212 21.0276 64.9357 21.2782C64.3503 21.5288 63.7169 21.6477 63.0804 21.6266C59.7923 21.6268 57.4069 19.074 57.4067 15.5606C57.3774 13.981 57.9336 12.4464 58.9683 11.2525ZM97.3365 9.31705L97.4398 9.31704C100.975 9.36424 103.166 11.8255 103.166 15.7642C103.166 15.973 103.155 16.1817 103.132 16.3893C103.121 16.4823 103.076 16.568 103.007 16.6304C102.937 16.6928 102.847 16.7275 102.753 16.7281L94.3487 16.7287C94.374 17.577 94.732 18.3814 95.3454 18.9681C95.9587 19.5547 96.7782 19.8766 97.6269 19.8641C98.2916 19.9056 98.9507 19.7207 99.4967 19.3394C100.043 18.9582 100.444 18.4032 100.634 17.765C100.669 17.6717 100.739 17.5955 100.829 17.5522C100.918 17.509 101.022 17.5021 101.116 17.5329L102.789 18.1257C102.837 18.1415 102.881 18.1673 102.919 18.2014C102.957 18.2356 102.987 18.2773 103.007 18.3239C103.03 18.3689 103.044 18.418 103.047 18.4683C103.051 18.5187 103.044 18.5692 103.027 18.617C102.648 19.7406 101.918 20.7126 100.944 21.3898C99.971 22.067 98.8056 22.4134 97.6203 22.3781C96.8304 22.3858 96.0468 22.2368 95.3149 21.9397C94.583 21.6426 93.9172 21.2032 93.3563 20.6471C92.7441 20.0033 92.2667 19.2437 91.9522 18.4129C91.6376 17.5821 91.4923 16.6968 91.5247 15.809C91.5244 11.7433 94.4786 9.30877 97.3331 9.30858L97.3365 9.31705ZM49.7882 9.32024C53.3863 9.32 55.6226 11.7915 55.6229 15.7691C55.6226 15.9779 55.6113 16.1865 55.589 16.3942C55.579 16.4876 55.5346 16.574 55.4645 16.6366C55.3944 16.6992 55.3036 16.7335 55.2096 16.733L46.8055 16.7336C46.829 17.5867 47.1891 18.3959 47.807 18.9846C48.425 19.5732 49.2507 19.8936 50.104 19.8758C50.7687 19.9179 51.4281 19.7332 51.9743 19.3519C52.5205 18.9706 52.9212 18.4152 53.1108 17.7767C53.1449 17.6825 53.2145 17.6055 53.3048 17.5621C53.395 17.5187 53.4987 17.5124 53.5935 17.5446L55.2724 18.1357C55.3208 18.1512 55.3654 18.177 55.403 18.2112C55.4407 18.2453 55.4707 18.2872 55.4909 18.3338C55.5102 18.3803 55.5201 18.4301 55.5201 18.4804C55.5201 18.5307 55.5102 18.5805 55.4909 18.6269C55.1119 19.75 54.3822 20.7216 53.4094 21.3987C52.4366 22.0759 51.272 22.4227 50.0872 22.3881C49.2959 22.3966 48.5108 22.2481 47.7774 21.9509C47.044 21.6538 46.3769 21.214 45.8147 20.657C45.2036 20.0125 44.7269 19.2528 44.4125 18.4222C44.098 17.5915 43.9521 16.7066 43.9831 15.819C43.9829 11.7533 46.9371 9.31874 49.7933 9.31855L49.7882 9.32024ZM37.0591 9.3211C38.6736 9.32099 39.9797 9.71222 40.947 10.4863C41.6003 11.0073 42.0848 11.7098 42.3397 12.5055C42.3477 12.5394 42.3489 12.5744 42.3433 12.6087C42.3376 12.643 42.3252 12.6759 42.3068 12.7053C42.2884 12.7348 42.2643 12.7603 42.2359 12.7804C42.2075 12.8005 42.1754 12.8147 42.1415 12.8223L40.1375 13.4848C40.0486 13.5187 39.9503 13.5187 39.8614 13.4849C39.8236 13.4674 39.7899 13.442 39.7628 13.4105C39.7356 13.3789 39.7155 13.3419 39.7038 13.3019C39.5344 12.6531 38.9515 11.5639 37.0559 11.564C35.7329 11.5641 34.9401 12.3231 34.9402 13.0583C34.9402 13.5462 35.1926 14.1746 36.3853 14.4016L38.5875 14.8148C41.049 15.311 42.4585 16.6576 42.4587 18.5329L42.4587 18.5007C42.4588 20.3642 40.6666 22.3548 37.3362 22.355C33.4737 22.3553 31.9557 20.1701 31.6761 18.8809C31.6669 18.8136 31.6826 18.7452 31.7204 18.6887C31.7582 18.6322 31.8153 18.5915 31.8811 18.5743L33.9478 17.9304C33.9847 17.9236 34.0226 17.9236 34.0596 17.9304C34.1186 17.9293 34.1769 17.9433 34.229 17.9711C34.2665 17.9891 34.2996 18.0151 34.3259 18.0473C34.3522 18.0795 34.3712 18.1171 34.3815 18.1574C34.6424 19.3974 35.7622 20.1359 37.3733 20.1358C38.8725 20.1357 39.5551 19.3513 39.5551 18.6398C39.555 17.9283 38.9469 17.4049 37.9016 17.1949L35.5841 16.7445C33.4225 16.3364 32.0757 14.9931 32.0755 13.2448C32.0754 11.1171 34.3605 9.32128 37.0591 9.3211ZM122.193 5.86801C122.298 5.87448 122.397 5.92086 122.469 5.99769C122.541 6.07451 122.581 6.17597 122.581 6.28133L122.581 9.66941L124.755 9.66926C124.859 9.67695 124.957 9.72381 125.028 9.80046C125.099 9.87711 125.139 9.97789 125.139 10.0826L125.139 11.8884C125.14 11.9912 125.1 12.09 125.028 12.1633C124.956 12.2366 124.857 12.2784 124.755 12.2798L122.581 12.2799L122.582 18.309C122.582 19.3085 122.978 19.7218 123.998 19.7218C124.231 19.7178 124.463 19.6986 124.693 19.6641C124.748 19.6546 124.805 19.6574 124.86 19.6723C124.914 19.6873 124.965 19.7139 125.008 19.7505C125.049 19.7886 125.082 19.8347 125.104 19.886C125.127 19.9372 125.139 19.9926 125.14 20.0486L125.14 21.7427C125.141 21.827 125.114 21.9092 125.064 21.977C125.014 22.0448 124.943 22.0946 124.862 22.1188C124.366 22.2579 123.853 22.3246 123.337 22.3171C121.159 22.3172 119.809 20.9163 119.809 18.6565L119.808 12.3055L117.928 12.3056C117.826 12.2995 117.73 12.256 117.659 12.1834C117.587 12.1109 117.545 12.0145 117.54 11.9127L117.54 10.1034C117.539 9.99794 117.579 9.89625 117.651 9.81933C117.723 9.74241 117.822 9.69613 117.928 9.69005L118.415 9.69002C119.007 9.68998 120.003 9.48324 120.003 8.0738L120.003 6.2815C120.002 6.17602 120.042 6.07433 120.114 5.99741C120.186 5.92049 120.285 5.87421 120.39 5.86813L122.193 5.86801ZM81.4008 11.3374C81.8256 10.688 82.4122 10.1603 83.1027 9.80625C83.7932 9.45216 84.564 9.28385 85.3393 9.31785C87.4873 9.31771 89.6575 10.8303 89.6577 14.1354L89.6582 21.7857C89.653 21.8877 89.6104 21.9841 89.5385 22.0566C89.4666 22.1292 89.3706 22.1726 89.2686 22.1787L87.2883 22.1789C87.1867 22.1724 87.091 22.1287 87.0195 22.0563C86.948 21.9838 86.9056 21.8876 86.9004 21.7859L86.8999 14.3812C86.8998 13.4444 86.6066 11.8656 84.6229 11.8657C83.1728 11.8658 82.1429 13.006 82.143 14.6594L82.1435 21.7862C82.1387 21.888 82.0964 21.9845 82.0248 22.057C81.9532 22.1296 81.8573 22.1731 81.7556 22.1793L79.7498 22.1794C79.6479 22.1733 79.5518 22.1298 79.4799 22.0573C79.4081 21.9848 79.3654 21.8884 79.3602 21.7864L79.3597 14.3817C79.363 13.4449 79.0715 11.8593 77.0861 11.8595C75.5784 11.8596 74.5621 12.9913 74.5622 14.6768L74.5627 21.7867C74.5575 21.8884 74.5151 21.9846 74.4436 22.0571C74.372 22.1296 74.2764 22.1732 74.1747 22.1798L72.1961 22.1799C72.095 22.1729 71.9999 22.1291 71.929 22.0566C71.8581 21.9842 71.8163 21.8882 71.8115 21.7869L71.8107 10.0608C71.8158 9.95961 71.8578 9.86381 71.9286 9.79142C71.9994 9.71903 72.0943 9.67503 72.1953 9.66771L74.0994 9.66758C74.201 9.67409 74.2967 9.71773 74.3682 9.79019C74.4397 9.86265 74.4821 9.95888 74.4873 10.0606L74.4874 10.767C74.9115 10.303 75.429 9.93397 76.0059 9.6843C76.5829 9.43462 77.2061 9.3099 77.8347 9.31836C78.5568 9.29717 79.2709 9.47415 79.8996 9.83008C80.5283 10.186 81.0474 10.7073 81.4008 11.3374ZM111.573 9.31609C112.207 9.28897 112.838 9.40615 113.419 9.6588C114.001 9.91144 114.517 10.2929 114.929 10.7744C115.698 11.7868 116.09 13.0361 116.036 14.3064L116.036 21.7839C116.032 21.8851 115.99 21.981 115.92 22.0535C115.849 22.126 115.754 22.17 115.653 22.177L113.649 22.1771C113.547 22.1706 113.452 22.1271 113.38 22.0546C113.308 21.9822 113.265 21.886 113.26 21.7841L113.259 14.7064C113.259 12.8548 112.388 11.913 110.735 11.9131C110.375 11.9015 110.017 11.9748 109.691 12.127C109.365 12.2791 109.079 12.5059 108.856 12.7891C108.408 13.4338 108.182 14.2067 108.211 14.9914L108.211 21.7845C108.206 21.8861 108.164 21.9824 108.092 22.0549C108.021 22.1273 107.925 22.171 107.823 22.1775L105.823 22.1776C105.721 22.1711 105.626 22.1275 105.554 22.055C105.482 21.9826 105.44 21.8863 105.435 21.7846L105.434 10.05C105.438 9.94779 105.48 9.85072 105.552 9.77774C105.623 9.70476 105.72 9.66111 105.822 9.65529L107.777 9.65516C107.878 9.6617 107.973 9.70522 108.044 9.7774C108.115 9.84958 108.157 9.94536 108.161 10.0465L108.162 10.8731C108.576 10.3731 109.098 9.9732 109.689 9.70355C110.28 9.4339 110.924 9.30144 111.573 9.31609ZM63.4237 11.9417C61.4721 11.9418 60.2339 13.3293 60.234 15.5604C60.2342 17.7914 61.4574 19.1771 63.4242 19.1769C65.2995 19.1768 66.5631 17.7216 66.563 15.56C66.5628 13.3984 65.299 11.9416 63.4237 11.9417ZM49.8087 11.8308C49.0886 11.8184 48.3898 12.0752 47.8491 12.5508C47.3083 13.0265 46.9645 13.6868 46.8849 14.4026L52.7632 14.4022C52.6225 12.8149 51.4942 11.8307 49.8087 11.8308ZM97.3689 11.8276C96.6495 11.8165 95.9517 12.0737 95.4118 12.5492C94.8718 13.0247 94.5284 13.6843 94.4485 14.3994L100.329 14.399C100.183 12.8117 99.0612 11.8275 97.3672 11.8276L97.3689 11.8276Z" fill="#B5AFAF"/>
  <path d="M35.0995 1.81201L35.0997 5.75235L33.9834 5.75243L33.9831 1.81209L32.4398 1.81219L32.4398 0.85675L36.6596 0.856467L36.6597 1.81191L35.0995 1.81201Z" fill="#B5AFAF"/>
  <path d="M44.3235 5.76907L43.1631 5.76915L42.099 2.16092L41.0167 5.7693L39.88 5.76937L38.4398 0.85675L39.6256 0.856671L40.5389 4.39546L41.5687 0.85654L42.7545 0.856461L43.7711 4.39524L44.6552 0.856333L45.7462 0.85626L44.3235 5.76907Z" fill="#B5AFAF"/>
  <path d="M47.4401 5.75253L47.4398 0.85675L48.5392 0.856677L48.5395 5.75245L47.4401 5.75253Z" fill="#B5AFAF"/>
  <path d="M50.4401 5.75253L50.4398 0.85675L51.5561 0.856676L51.5564 4.78854L53.4673 4.78842L53.4673 5.75233L50.4401 5.75253Z" fill="#B5AFAF"/>
  <path d="M54.4401 5.75253L54.4398 0.85675L55.5477 0.856676L55.548 5.75245L54.4401 5.75253Z" fill="#B5AFAF"/>
  <path d="M59.8795 5.93024C58.5243 5.93033 57.44 4.95802 57.4399 3.39781C57.4398 1.8376 58.5392 0.856677 59.8876 0.856586C61.2361 0.856496 62.3254 1.8288 62.3255 3.39748C62.3256 4.96617 61.2347 5.93015 59.8795 5.93024ZM59.8792 1.75273C59.0322 1.75279 58.5393 2.45077 58.5394 3.38927C58.5394 4.32777 59.0477 5.03415 59.8795 5.03409C60.7112 5.03404 61.2008 4.31912 61.2007 3.39756C61.2006 2.476 60.7059 1.75268 59.8877 1.75273L59.8792 1.75273Z" fill="#B5AFAF"/>
</svg>