<svg xmlns="http://www.w3.org/2000/svg" width="37" height="36" viewBox="0 0 37 36" fill="none">
  <path d="M27.9501 2.78781L26.6014 4.13653C26.3922 4.35691 26.0017 4.37834 25.76 4.13653C25.5272 3.90385 25.5272 3.52781 25.76 3.29513L27.1087 1.94642C27.3414 1.71366 27.7174 1.71366 27.9561 1.94642C28.1888 2.17916 28.1888 2.55513 27.9501 2.78781Z" fill="#6854FC"/>
  <path d="M29.8957 6.92335C29.8838 7.24563 29.6212 7.4963 29.2989 7.4963H29.275L27.3714 7.41864C27.0431 7.4008 26.7865 7.12623 26.7985 6.79208C26.8104 6.47577 27.073 6.2251 27.3953 6.2251H27.4192L29.3228 6.30275C29.6571 6.3147 29.9077 6.59517 29.8957 6.92335Z" fill="#6854FC"/>
  <path d="M23.5932 0.573766L23.6708 2.47751C23.6888 2.8057 23.4321 3.08616 23.1039 3.09811H23.0741C22.7578 3.09811 22.4952 2.84751 22.4833 2.52523L22.3996 0.621554C22.3878 0.2933 22.6444 0.0128342 22.9726 0.000884331C23.3067 -0.0170375 23.5813 0.239609 23.5932 0.573766Z" fill="#6854FC"/>
  <path d="M19.7904 15.9361L13.9608 10.1071L14.7512 5.24039L24.659 15.1482L19.7904 15.9361ZM26.8627 14.7913L26.1119 14.9128L14.9871 3.78852L15.1091 3.03689C15.1871 2.55663 15.7762 2.36652 16.1202 2.71056L27.1894 13.7802C27.5335 14.1244 27.3431 14.7136 26.8627 14.7913ZM24.4364 5.4652C25.5909 6.6197 25.7168 8.41935 24.8158 9.71838L20.1786 5.08114C21.4782 4.18131 23.2802 4.30953 24.4364 5.4652ZM10.4046 21.3409C9.89528 21.8497 9.0654 21.8508 8.55604 21.3409C8.0461 20.831 8.0461 20.0017 8.55604 19.4917L9.48501 18.5628C9.54477 18.6225 11.4523 20.5296 11.3341 20.4114L10.4046 21.3409ZM13.3815 20.7709C11.9778 19.3674 10.6991 18.0889 9.12542 16.5154C8.80606 16.1961 8.80606 15.6756 9.12542 15.3557L13.3238 11.1579L18.7391 16.5731C13.0289 22.2824 20.1832 15.1292 14.5407 20.7709C14.2306 21.0804 13.6921 21.0816 13.3815 20.7709ZM23.068 23.83C22.6961 23.458 24.6211 25.3867 18.1207 18.8768C17.6552 19.3422 16.3244 20.6731 16.2648 20.7328L21.218 25.68C21.7253 26.1933 22.5547 26.1933 23.068 25.68C23.5812 25.1727 23.5812 24.3373 23.068 23.83Z" fill="#6854FC"/>
  <path d="M0 31.1211V32.266C0 33.8618 1.2952 35.157 2.89108 35.157H34.1089C35.7048 35.157 37 33.8618 37 32.266V31.1211C35.9658 31.1211 42.3827 31.1211 0 31.1211Z" fill="#6854FC"/>
  <path d="M33.8103 8.26013H26.5773C26.5058 9.0061 26.2491 9.74617 25.7956 10.3966L25.6762 10.5756L26.3446 11.244H32.5809V26.9452H23.3488C22.6193 27.3518 21.6936 27.3663 20.9378 26.9452H4.41917V11.244H11.5446L12.7621 10.0266L13.0485 8.26013H3.18978C2.22302 8.26013 1.4353 9.04194 1.4353 10.0087V29.929H35.5648V10.0087C35.5648 9.04194 34.777 8.26013 33.8103 8.26013Z" fill="#6854FC"/>
</svg>